# xmcd
#
# Track frame offsets:
#	150
#	40248
#	52882
#	64793
#	77767
#	91413
#	107151
#	118824
#	133778
#	142891
#	155108
#	169239
#	181982
#	193262
#	201597
#	214177
#	228915
#	245178
#	261241
#	276281
#	285557
#	295701
#	307907
#	318496
#
# Disc length: 4396
#
# Revision: 3
# Processed by: cddbd v1.5.1PL0 Copyright (c) Steve Scherf et al.
# Submitted via: FreeRIP 2.80 
# Normalized: r2:DSETVAR1,TDELIM( - )
#
DISCID=75112a18
DTITLE=Various Artist - This Is Northern Soul
DYEAR=1999
DGENRE=Northern Soul
TTITLE0=Cutis Mayfield - Move On Up
TTITLE1=Little Antony and The Imperials - Better Use Your Head
TTITLE2=Jackie Wilson - I've Lost You
TTITLE3=Dobie Gray - Out On The Floor
TTITLE4=Erma Franklin - (I Get The) Sweetest Feeling
TTITLE5=Al Wilson - The Snake
TTITLE6=Darrel Banks - Our Love (Is In The Pocket)
TTITLE7=Johnny Jones and The Kink Casuals - Purpl Haze
TTITLE8=Lavern Banks - Our Love (Is In The Pocket)
TTITLE9=Javells Feat. Nosmo Kink - Goodbye Nothing To Say
TTITLE10=Wayne Gibson - Under My Thumb
TTITLE11=Father's Angels - Bak To Bach
TTITLE12=Artistics - Girl I Need You
TTITLE13=Bob  Rell - Blowing My Mind To Pieces
TTITLE14=Barbara Acklin - Just Ain't No Love
TTITLE15=Booker T and The MGs - Time Is Tight
TTITLE16=Evelyn Thomas - Weak Spot
TTITLE17=Exciters - Reaching For The Best
TTITLE18=Barbara Pennington - 24 Hours A Day
TTITLE19=Adam's Apples - Don't Take It Out On This World
TTITLE20=Judy Street - What
TTITLE21=Jack Montgomery - Dearly Beloved
TTITLE22=Just Bothers - Sliced Tomatoes
TTITLE23=Jimmy Radcliffe - Long After Tonight Is All Over
EXTD=
EXTT0=
EXTT1=
EXTT2=
EXTT3=
EXTT4=
EXTT5=
EXTT6=
EXTT7=
EXTT8=
EXTT9=
EXTT10=
EXTT11=
EXTT12=
EXTT13=
EXTT14=
EXTT15=
EXTT16=
EXTT17=
EXTT18=
EXTT19=
EXTT20=
EXTT21=
EXTT22=
EXTT23=
PLAYORDER=
